<svg version="1.2" xmlns="http://www.w3.org/2000/svg" viewBox="0 0 244 302" width="700" height="866">
	<title>24153-ai</title>
	<style>
		.s0 { opacity: .1;fill: #1d1d1b } 
		.s1 { fill: #b88325 } 
		.s2 { fill: #f9b233 } 
		.s3 { fill: #ffca38 } 
		.s4 { fill: #e93a4c } 
		.s5 { fill: #000000 } 
		.s6 { fill: #4d7a91 } 
		.s7 { fill: #5b90ab } 
		.s8 { fill: #575756 } 
		.s9 { fill: #3c3c3b } 
		.s10 { fill: #333332 } 
		.s11 { fill: #dadada } 
		.s12 { fill: #878787 } 
		.s13 { fill: #ffbb7d } 
		.s14 { fill: #4a4a49 } 
		.s15 { fill: #1d1d1b } 
	</style>
	<g id="Layer 1">
		<g id="&lt;Group&gt;">
			<g id="&lt;Group&gt;">
				<path id="&lt;Path&gt;" class="s0" d="m197.9 208.7c40.2 23.2 40.2 60.8 0 84c-40.2 23.2-105.4 23.2-145.6 0c-40.2-23.2-40.2-60.8 0-84c40.2-23.2 105.4-23.2 145.6 0z" />
				<g id="&lt;Group&gt;">
					<g id="&lt;Group&gt;">
						<g id="&lt;Group&gt;">
							<g id="&lt;Group&gt;">
								<g id="&lt;Group&gt;">
									<path id="&lt;Path&gt;" class="s1" d="m211.3 223.7l-0.1 17.7c0 12.8-8.4 25.5-25.2 35.3c-33.7 19.6-88.6 19.6-122.5 0c-17.1-9.9-25.6-22.8-25.6-35.8l0.1-17.7c-0.1 12.9 8.5 25.8 25.5 35.7c34 19.6 88.9 19.6 122.6 0c16.7-9.7 25.1-22.5 25.2-35.2z" />
								</g>
								<g id="&lt;Group&gt;">
									<path id="&lt;Path&gt;" class="s2" d="m185.7 187.9c33.9 19.6 34.1 51.4 0.4 71c-33.7 19.6-88.6 19.6-122.6 0c-33.9-19.6-34.1-51.4-0.4-71c33.8-19.6 88.6-19.6 122.6 0z" />
									<path id="&lt;Path&gt;" class="s1" d="m124.9 264.5c-21.6 0-41.8-4.8-56.8-13.5c-13.6-7.8-21-17.6-21.1-27.7c0-10 7.4-19.8 20.7-27.5c15-8.7 35.1-13.5 56.6-13.5c21.6 0 41.8 4.8 56.8 13.5c13.6 7.8 21.1 17.7 21.1 27.7c0 10-7.3 19.8-20.7 27.5c-14.9 8.7-35 13.5-56.6 13.5z" />
									<path id="&lt;Path&gt;" class="s3" d="m124.9 268.8c-21.6 0-41.8-4.8-56.8-13.5c-13.6-7.8-21-17.7-21.1-27.8c0-10 7.4-19.7 20.7-27.5c15-8.7 35.1-13.5 56.6-13.5c21.6 0 41.8 4.8 56.8 13.5c13.6 7.8 21.1 17.7 21.1 27.8c0 10-7.3 19.7-20.7 27.5c-14.9 8.7-35 13.5-56.6 13.5z" />
								</g>
							</g>
						</g>
						<g id="&lt;Group&gt;">
							<g id="&lt;Group&gt;">
								<path id="&lt;Compound Path&gt;" fill-rule="evenodd" class="s1" d="m168.7 249.8l-8.8-5.1l-5.1 3l8.8 0.4v4.6l-8.5 5l-8.9-5.1l-6.9 4.1l-65.3-37.7v-4.6l7 0.6l-9.1-5.3v-4.6l8.6-0.4l9.1 5.3l5.1-3l-9.1-5.2v-4.6l8.6-0.4l9.5 5.5c9.8-4.1 18.4-3.5 26.7 1.4l2.3 1.3c6.7 3.9 8.6 7.8 5.3 12.1c8.7-2.5 16.2-1.1 23 2.9l5.4 3c4.6 2.7 6.9 5.5 6.9 8.5q0 3.9-5.2 8l9.2 0.7v4.6zm-26.6-5.5l12-7c4.1-2.4 4.7-4.6-0.2-7.4l-5.6-3.3c-6.1-3.5-10.3-3.2-15.8 0l-10.5 6.1zm-29.3-16.9l9.8-5.7c4.5-2.7 5.6-5.2 0.4-8.3l-3.7-2.1c-4.6-2.6-8.5-2.7-12.8-0.2l-11 6.3z" />
							</g>
							<path id="&lt;Path&gt;" class="s1" d="m173.3 226.9v4.6h-3.5v-4.6z" />
							<path id="&lt;Path&gt;" class="s1" d="m139.6 208.7v4.7h-3.5v-4.7z" />
							<path id="&lt;Compound Path&gt;" fill-rule="evenodd" class="s2" d="m168.7 245.2l-8.8-5.1l-5.1 2.9l8.8 5.1l-8.5 5l-8.9-5.1l-6.9 4.1l-65.3-37.7l7-4l-9.1-5.3l8.6-5l9.1 5.3l5.1-3l-9.1-5.2l8.6-5l9.5 5.5c9.8-4.1 18.4-3.5 26.7 1.3l2.3 1.4c6.7 3.9 8.6 7.7 5.3 12.1c8.7-2.5 16.2-1.1 23 2.8l5.4 3.1c4.6 2.7 6.9 5.5 6.9 8.5q0 3.9-5.2 8l9.2 5.3zm-26.6-5.5l12-7c4.1-2.4 4.7-4.6-0.2-7.4l-5.6-3.3c-6.1-3.5-10.3-3.2-15.8 0l-10.5 6.1zm-29.3-17l9.8-5.7c4.5-2.6 5.6-5.2 0.4-8.2l-3.7-2.1c-4.6-2.7-8.5-2.8-12.8-0.3l-11 6.4z" />
						</g>
					</g>
					<g id="&lt;Group&gt;">
						<g id="&lt;Group&gt;">
							<g id="&lt;Group&gt;">
								<g id="&lt;Group&gt;">
									<path id="&lt;Path&gt;" class="s1" d="m223 202.4v17.8c0 12.7-8.4 25.5-25.2 35.2c-33.7 19.6-88.6 19.6-122.5 0c-17.1-9.8-25.6-22.8-25.6-35.7l0.1-17.8c-0.1 13 8.4 25.9 25.5 35.8c34 19.6 88.8 19.6 122.6 0c16.7-9.8 25.1-22.5 25.1-35.3z" />
								</g>
								<g id="&lt;Group&gt;">
									<path id="&lt;Path&gt;" class="s2" d="m197.5 166.7c33.9 19.6 34.1 51.4 0.4 71c-33.8 19.6-88.6 19.6-122.6 0c-33.9-19.6-34.1-51.4-0.4-71c33.8-19.6 88.6-19.6 122.6 0z" />
									<path id="&lt;Path&gt;" class="s1" d="m136.7 243.3c-21.6 0-41.8-4.8-56.8-13.5c-13.6-7.8-21.1-17.7-21.1-27.8c0-9.9 7.4-19.7 20.7-27.5c14.9-8.7 35-13.4 56.6-13.4c21.6 0 41.8 4.8 56.8 13.4c13.6 7.9 21.1 17.7 21.1 27.8c0 10-7.4 19.8-20.7 27.5c-14.9 8.7-35.1 13.5-56.6 13.5z" />
									<path id="&lt;Path&gt;" class="s3" d="m136.7 247.5c-21.6 0-41.8-4.8-56.8-13.5c-13.6-7.8-21.1-17.6-21.1-27.7c0-10 7.4-19.8 20.7-27.5c14.9-8.7 35-13.5 56.6-13.5c21.6 0 41.8 4.8 56.8 13.5c13.6 7.8 21.1 17.7 21.1 27.7c0 10-7.4 19.8-20.7 27.6c-14.9 8.6-35.1 13.4-56.6 13.4z" />
								</g>
							</g>
						</g>
						<g id="&lt;Group&gt;">
							<g id="&lt;Group&gt;">
								<path id="&lt;Compound Path&gt;" fill-rule="evenodd" class="s1" d="m180.5 228.5l-8.8-5l-5.1 2.9l8.8 0.5v4.6l-8.6 5l-8.8-5.1l-6.9 4.1l-65.3-37.7v-4.6l7 0.5l-9.1-5.2v-4.6l8.6-0.4l9.1 5.3l5.1-3l-9.1-5.2v-4.7l8.6-0.3l9.5 5.5c9.8-4.1 18.4-3.5 26.7 1.3l2.3 1.4c6.7 3.8 8.6 7.7 5.3 12.1c8.7-2.5 16.1-1.2 23 2.8l5.4 3.1c4.5 2.6 6.8 5.5 6.8 8.5q0.1 3.8-5.1 8l9.2 0.6v4.7zm-26.7-5.6l12.1-7c4.1-2.3 4.7-4.5-0.2-7.3l-5.6-3.3c-6.1-3.5-10.3-3.2-15.8 0l-10.5 6.1zm-29.3-17l9.8-5.7c4.5-2.6 5.6-5.2 0.4-8.2l-3.7-2.1c-4.6-2.7-8.5-2.8-12.9-0.3l-10.9 6.4z" />
							</g>
							<path id="&lt;Path&gt;" class="s1" d="m185 205.7v4.6h-3.4v-4.6z" />
							<path id="&lt;Path&gt;" class="s1" d="m151.4 187.5v4.6h-3.5v-4.6z" />
							<path id="&lt;Compound Path&gt;" fill-rule="evenodd" class="s2" d="m180.5 223.9l-8.8-5.1l-5.1 3l8.8 5.1l-8.6 5l-8.8-5.1l-6.9 4l-65.3-37.6l7-4.1l-9.1-5.2l8.6-5l9.1 5.2l5.1-2.9l-9.1-5.3l8.6-4.9l9.5 5.5c9.8-4.1 18.4-3.5 26.7 1.3l2.3 1.4c6.7 3.8 8.6 7.7 5.3 12.1c8.7-2.6 16.1-1.2 23 2.8l5.4 3.1c4.5 2.6 6.8 5.5 6.8 8.5q0.1 3.8-5.1 7.9l9.2 5.3zm-26.7-5.5l12.1-7c4.1-2.3 4.7-4.5-0.2-7.3l-5.6-3.3c-6.1-3.5-10.3-3.2-15.8 0l-10.5 6.1zm-29.3-17l9.8-5.7c4.5-2.6 5.6-5.2 0.4-8.2l-3.7-2.1c-4.6-2.7-8.5-2.8-12.9-0.3l-10.9 6.4z" />
						</g>
					</g>
					<g id="&lt;Group&gt;">
						<g id="&lt;Group&gt;">
							<g id="&lt;Group&gt;">
								<g id="&lt;Group&gt;">
									<path id="&lt;Path&gt;" class="s1" d="m211.3 181.2l-0.1 17.8c0 12.7-8.4 25.5-25.2 35.2c-33.7 19.6-88.6 19.6-122.5 0c-17.1-9.9-25.6-22.8-25.6-35.7l0.1-17.8c-0.1 12.9 8.5 25.9 25.5 35.7c34 19.6 88.9 19.6 122.6 0c16.7-9.7 25.1-22.4 25.2-35.2z" />
								</g>
								<g id="&lt;Group&gt;">
									<path id="&lt;Path&gt;" class="s2" d="m185.7 145.5c33.9 19.5 34.1 51.3 0.4 70.9c-33.7 19.6-88.6 19.6-122.6 0c-33.9-19.6-34.1-51.3-0.4-70.9c33.8-19.6 88.6-19.6 122.6 0z" />
									<path id="&lt;Path&gt;" class="s1" d="m124.9 222c-21.6 0-41.8-4.7-56.8-13.4c-13.6-7.9-21-17.7-21.1-27.8c0-10 7.4-19.7 20.7-27.5c15-8.7 35.1-13.5 56.6-13.5c21.6 0 41.8 4.8 56.8 13.5c13.6 7.8 21.1 17.7 21.1 27.8c0 10-7.3 19.7-20.7 27.5c-14.9 8.7-35 13.4-56.6 13.4z" />
									<path id="&lt;Path&gt;" class="s3" d="m124.9 226.3c-21.6 0-41.8-4.8-56.8-13.5c-13.6-7.8-21-17.7-21.1-27.8c0-9.9 7.4-19.7 20.7-27.5c15-8.6 35.1-13.4 56.6-13.4c21.6 0 41.8 4.8 56.8 13.5c13.6 7.8 21.1 17.6 21.1 27.7c0 10-7.3 19.8-20.7 27.5c-14.9 8.7-35 13.5-56.6 13.5z" />
								</g>
							</g>
						</g>
						<g id="&lt;Group&gt;">
							<g id="&lt;Group&gt;">
								<path id="&lt;Compound Path&gt;" fill-rule="evenodd" class="s1" d="m168.7 207.3l-8.8-5.1l-5.1 3l8.8 0.5v4.6l-8.5 5l-8.9-5.1l-6.9 4l-65.3-37.6v-4.7l7 0.6l-9.1-5.2v-4.7l8.6-0.3l9.1 5.2l5.1-2.9l-9.1-5.3v-4.6l8.6-0.4l9.5 5.5c9.8-4 18.4-3.4 26.7 1.4l2.3 1.3c6.7 3.9 8.6 7.8 5.3 12.2c8.7-2.6 16.2-1.2 23 2.8l5.4 3.1c4.6 2.6 6.9 5.5 6.9 8.4q0 3.9-5.2 8l9.2 0.7v4.6zm-26.6-5.5l12-7c4.1-2.4 4.7-4.6-0.2-7.4l-5.6-3.2c-6.1-3.5-10.3-3.3-15.8-0.1l-10.5 6.1zm-29.3-16.9l9.8-5.7c4.5-2.6 5.6-5.2 0.4-8.2l-3.7-2.1c-4.6-2.7-8.5-2.8-12.8-0.3l-11 6.3z" />
							</g>
							<path id="&lt;Path&gt;" class="s1" d="m173.3 184.4v4.6h-3.5v-4.6z" />
							<path id="&lt;Path&gt;" class="s1" d="m139.6 166.3v4.6h-3.5v-4.6z" />
							<path id="&lt;Compound Path&gt;" fill-rule="evenodd" class="s2" d="m168.7 202.7l-8.8-5.1l-5.1 3l8.8 5.1l-8.5 4.9l-8.9-5l-6.9 4l-65.3-37.7l7-4l-9.1-5.3l8.6-4.9l9.1 5.2l5.1-3l-9.1-5.2l8.6-5l9.5 5.5c9.8-4.1 18.4-3.4 26.7 1.4l2.3 1.3c6.7 3.9 8.6 7.8 5.3 12.2c8.7-2.6 16.2-1.2 23 2.8l5.4 3c4.6 2.7 6.9 5.5 6.9 8.5q0 3.9-5.2 8l9.2 5.3zm-26.6-5.5l12-7c4.1-2.4 4.7-4.6-0.2-7.4l-5.6-3.3c-6.1-3.4-10.3-3.2-15.8 0l-10.5 6.1zm-29.3-16.9l9.8-5.7c4.5-2.7 5.6-5.2 0.4-8.2l-3.7-2.1c-4.6-2.7-8.5-2.8-12.8-0.3l-11 6.3z" />
						</g>
					</g>
					<g id="&lt;Group&gt;">
						<g id="&lt;Group&gt;">
							<g id="&lt;Group&gt;">
								<g id="&lt;Group&gt;">
									<path id="&lt;Path&gt;" class="s1" d="m211.3 160l-0.1 17.7c0 12.8-8.4 25.5-25.2 35.3c-33.7 19.6-88.6 19.6-122.5 0c-17.1-9.9-25.6-22.9-25.6-35.8l0.1-17.7c-0.1 12.9 8.5 25.8 25.5 35.7c34 19.6 88.9 19.6 122.6 0c16.7-9.7 25.1-22.5 25.2-35.2z" />
								</g>
								<g id="&lt;Group&gt;">
									<path id="&lt;Path&gt;" class="s2" d="m185.7 124.2c33.9 19.6 34.1 51.4 0.4 71c-33.7 19.6-88.6 19.6-122.6 0c-33.9-19.6-34.1-51.4-0.4-71c33.8-19.6 88.6-19.6 122.6 0z" />
									<path id="&lt;Path&gt;" class="s1" d="m124.9 200.8c-21.6 0-41.8-4.8-56.8-13.5c-13.6-7.8-21-17.7-21.1-27.7c0-10 7.4-19.8 20.7-27.5c15-8.7 35.1-13.5 56.6-13.5c21.6 0 41.8 4.8 56.8 13.5c13.6 7.8 21.1 17.7 21.1 27.7c0 10-7.3 19.8-20.7 27.5c-14.9 8.7-35 13.5-56.6 13.5z" />
									<path id="&lt;Path&gt;" class="s3" d="m124.9 205.1c-21.6 0-41.8-4.8-56.8-13.5c-13.6-7.9-21-17.7-21.1-27.8c0-10 7.4-19.7 20.7-27.5c15-8.7 35.1-13.5 56.6-13.5c21.6 0 41.8 4.8 56.8 13.5c13.6 7.8 21.1 17.7 21.1 27.8c0 10-7.3 19.7-20.7 27.5c-14.9 8.7-35 13.5-56.6 13.5z" />
								</g>
							</g>
						</g>
						<g id="&lt;Group&gt;">
							<g id="&lt;Group&gt;">
								<path id="&lt;Compound Path&gt;" fill-rule="evenodd" class="s1" d="m168.7 186.1l-8.8-5.1l-5.1 2.9l8.8 0.5v4.6l-8.5 5l-8.9-5.1l-6.9 4.1l-65.3-37.7v-4.6l7 0.6l-9.1-5.3v-4.6l8.6-0.4l9.1 5.3l5.1-3l-9.1-5.2v-4.6l8.6-0.4l9.5 5.5c9.8-4.1 18.4-3.5 26.7 1.4l2.3 1.3c6.7 3.9 8.6 7.8 5.3 12.1c8.7-2.5 16.2-1.1 23 2.8l5.4 3.1c4.6 2.7 6.9 5.5 6.9 8.5q0 3.9-5.2 8l9.2 0.7v4.6zm-26.6-5.5l12-7c4.1-2.4 4.7-4.6-0.2-7.4l-5.6-3.3c-6.1-3.5-10.3-3.2-15.8 0l-10.5 6.1zm-29.3-16.9l9.8-5.7c4.5-2.7 5.6-5.2 0.4-8.3l-3.7-2.1c-4.6-2.6-8.5-2.7-12.8-0.2l-11 6.3z" />
							</g>
							<path id="&lt;Path&gt;" class="s1" d="m173.3 163.2v4.6h-3.5v-4.6z" />
							<path id="&lt;Path&gt;" class="s1" d="m139.6 145v4.7h-3.5v-4.7z" />
							<path id="&lt;Compound Path&gt;" fill-rule="evenodd" class="s2" d="m168.7 181.5l-8.8-5.1l-5.1 2.9l8.8 5.1l-8.5 5l-8.9-5.1l-6.9 4.1l-65.3-37.7l7-4l-9.1-5.3l8.6-5l9.1 5.3l5.1-3l-9.1-5.2l8.6-5l9.5 5.5c9.8-4.1 18.4-3.5 26.7 1.3l2.3 1.4c6.7 3.9 8.6 7.7 5.3 12.1c8.7-2.5 16.2-1.1 23 2.8l5.4 3.1c4.6 2.7 6.9 5.5 6.9 8.5q0 3.9-5.2 8l9.2 5.3zm-26.6-5.5l12-7c4.1-2.4 4.7-4.6-0.2-7.4l-5.6-3.3c-6.1-3.5-10.3-3.2-15.8 0l-10.5 6.1zm-29.3-17l9.8-5.7c4.5-2.6 5.6-5.2 0.4-8.2l-3.7-2.1c-4.6-2.7-8.5-2.8-12.8-0.3l-11 6.4z" />
						</g>
					</g>
					<g id="&lt;Group&gt;">
						<g id="&lt;Group&gt;">
							<g id="&lt;Group&gt;">
								<g id="&lt;Group&gt;">
									<path id="&lt;Path&gt;" class="s1" d="m217.2 138.7l-0.1 17.8c0 12.7-8.4 25.5-25.2 35.2c-33.7 19.6-88.6 19.6-122.5 0c-17.1-9.8-25.6-22.8-25.6-35.7l0.1-17.8c-0.1 13 8.5 25.9 25.5 35.8c34 19.6 88.9 19.6 122.6 0c16.7-9.8 25.1-22.5 25.2-35.3z" />
								</g>
								<g id="&lt;Group&gt;">
									<path id="&lt;Path&gt;" class="s2" d="m191.6 103c33.9 19.6 34.1 51.4 0.4 71c-33.7 19.6-88.6 19.6-122.6 0c-33.9-19.6-34.1-51.4-0.4-71c33.8-19.6 88.6-19.6 122.6 0z" />
									<path id="&lt;Path&gt;" class="s1" d="m130.8 179.6c-21.6 0-41.8-4.8-56.8-13.5c-13.6-7.8-21-17.7-21.1-27.8c0-9.9 7.4-19.7 20.7-27.5c15-8.7 35.1-13.4 56.6-13.4c21.6 0 41.8 4.8 56.8 13.4c13.6 7.9 21.1 17.7 21.1 27.8c0 10-7.3 19.8-20.7 27.5c-14.9 8.7-35 13.5-56.6 13.5z" />
									<path id="&lt;Path&gt;" class="s3" d="m130.8 183.8c-21.6 0-41.8-4.8-56.8-13.5c-13.6-7.8-21-17.6-21.1-27.7c0-10 7.4-19.8 20.7-27.5c15-8.7 35.1-13.5 56.6-13.5c21.6 0 41.8 4.8 56.8 13.5c13.6 7.8 21.1 17.7 21.1 27.7c0 10-7.3 19.8-20.7 27.5c-14.9 8.7-35 13.5-56.6 13.5z" />
								</g>
							</g>
						</g>
						<g id="&lt;Group&gt;">
							<g id="&lt;Group&gt;">
								<path id="&lt;Compound Path&gt;" fill-rule="evenodd" class="s1" d="m174.6 164.8l-8.8-5l-5.1 2.9l8.8 0.5v4.6l-8.5 5l-8.9-5.1l-6.9 4l-65.3-37.6v-4.6l7 0.5l-9.1-5.2v-4.6l8.6-0.4l9.1 5.3l5.1-3l-9.1-5.3v-4.6l8.6-0.3l9.5 5.5c9.8-4.1 18.4-3.5 26.7 1.3l2.3 1.4c6.7 3.8 8.6 7.7 5.3 12.1c8.7-2.5 16.2-1.2 23.1 2.8l5.3 3.1c4.6 2.6 6.9 5.5 6.9 8.5q0 3.8-5.2 8l9.2 0.6v4.7zm-26.6-5.6l12-7c4.1-2.3 4.7-4.5-0.1-7.3l-5.7-3.3c-6.1-3.5-10.3-3.2-15.8 0l-10.5 6.1zm-29.3-17l9.8-5.7c4.5-2.6 5.6-5.2 0.4-8.2l-3.6-2.1c-4.7-2.7-8.6-2.8-12.9-0.3l-11 6.4z" />
							</g>
							<path id="&lt;Path&gt;" class="s1" d="m179.2 142v4.6h-3.5v-4.6z" />
							<path id="&lt;Path&gt;" class="s1" d="m145.5 123.8v4.6h-3.5v-4.6z" />
							<path id="&lt;Compound Path&gt;" fill-rule="evenodd" class="s2" d="m174.6 160.2l-8.8-5.1l-5.1 3l8.8 5.1l-8.5 5l-8.9-5.1l-6.9 4l-65.3-37.6l7-4.1l-9.1-5.2l8.6-5l9.1 5.2l5.1-2.9l-9.1-5.3l8.6-5l9.5 5.6c9.8-4.1 18.4-3.5 26.7 1.3l2.3 1.3c6.7 3.9 8.6 7.8 5.3 12.2c8.7-2.6 16.2-1.2 23.1 2.8l5.3 3.1c4.6 2.6 6.9 5.5 6.9 8.5q0 3.8-5.2 7.9l9.2 5.3zm-26.6-5.5l12-7c4.1-2.3 4.7-4.5-0.1-7.3l-5.7-3.3c-6.1-3.5-10.3-3.2-15.8 0l-10.5 6.1zm-29.3-17l9.8-5.7c4.5-2.6 5.6-5.2 0.4-8.2l-3.6-2.1c-4.7-2.7-8.6-2.8-12.9-0.3l-11 6.4z" />
						</g>
					</g>
					<g id="&lt;Group&gt;">
						<g id="&lt;Group&gt;">
							<g id="&lt;Group&gt;">
								<g id="&lt;Group&gt;">
									<path id="&lt;Path&gt;" class="s1" d="m211.3 117.5l-0.1 17.7c0 12.8-8.4 25.6-25.2 35.3c-33.7 19.6-88.6 19.6-122.5 0c-17.1-9.9-25.6-22.8-25.6-35.7l0.1-17.8c-0.1 12.9 8.5 25.9 25.5 35.7c34 19.6 88.9 19.6 122.6 0c16.7-9.7 25.1-22.5 25.2-35.2z" />
								</g>
								<g id="&lt;Group&gt;">
									<path id="&lt;Path&gt;" class="s2" d="m185.7 81.7c33.9 19.6 34.1 51.4 0.4 71c-33.7 19.6-88.6 19.6-122.6 0c-33.9-19.6-34.1-51.4-0.4-71c33.8-19.6 88.6-19.6 122.6 0z" />
									<path id="&lt;Path&gt;" class="s1" d="m124.9 158.3c-21.6 0-41.8-4.7-56.8-13.4c-13.6-7.9-21-17.7-21.1-27.8c0-10 7.4-19.8 20.7-27.5c15-8.7 35.1-13.5 56.6-13.5c21.6 0 41.8 4.8 56.8 13.5c13.6 7.8 21.1 17.7 21.1 27.8c0 10-7.3 19.7-20.7 27.5c-14.9 8.7-35 13.4-56.6 13.4z" />
									<path id="&lt;Path&gt;" class="s3" d="m124.9 162.6c-21.6 0-41.8-4.8-56.8-13.5c-13.6-7.8-21-17.7-21.1-27.8c0-9.9 7.4-19.7 20.7-27.5c15-8.7 35.1-13.4 56.6-13.4c21.6 0 41.8 4.8 56.8 13.4c13.6 7.9 21.1 17.7 21.1 27.8c0 10-7.3 19.8-20.7 27.5c-14.9 8.7-35 13.5-56.6 13.5z" />
								</g>
							</g>
						</g>
						<g id="&lt;Group&gt;">
							<g id="&lt;Group&gt;">
								<path id="&lt;Compound Path&gt;" fill-rule="evenodd" class="s1" d="m168.7 143.6l-8.8-5.1l-5.1 3l8.8 0.5v4.6l-8.5 5l-8.9-5.1l-6.9 4l-65.3-37.6v-4.7l7 0.6l-9.1-5.2v-4.7l8.6-0.3l9.1 5.2l5.1-2.9l-9.1-5.3v-4.6l8.6-0.4l9.5 5.5c9.8-4 18.4-3.4 26.7 1.4l2.3 1.3c6.7 3.9 8.6 7.8 5.3 12.2c8.7-2.6 16.2-1.2 23 2.8l5.4 3c4.6 2.7 6.9 5.5 6.9 8.5q0 3.9-5.2 8l9.2 0.7v4.6zm-26.6-5.5l12-7c4.1-2.4 4.7-4.6-0.2-7.4l-5.6-3.2c-6.1-3.5-10.3-3.3-15.8-0.1l-10.5 6.1zm-29.3-16.9l9.8-5.7c4.5-2.6 5.6-5.2 0.4-8.2l-3.7-2.1c-4.6-2.7-8.5-2.8-12.8-0.3l-11 6.3z" />
							</g>
							<path id="&lt;Path&gt;" class="s1" d="m173.3 120.7v4.6h-3.5v-4.6z" />
							<path id="&lt;Path&gt;" class="s1" d="m139.6 102.6v4.6h-3.5v-4.6z" />
							<path id="&lt;Compound Path&gt;" fill-rule="evenodd" class="s2" d="m168.7 139l-8.8-5.1l-5.1 3l8.8 5.1l-8.5 4.9l-8.9-5.1l-6.9 4.1l-65.3-37.7l7-4l-9.1-5.3l8.6-4.9l9.1 5.2l5.1-3l-9.1-5.2l8.6-5l9.5 5.5c9.8-4.1 18.4-3.4 26.7 1.4l2.3 1.3c6.7 3.9 8.6 7.8 5.3 12.1c8.7-2.5 16.2-1.1 23 2.9l5.4 3c4.6 2.7 6.9 5.5 6.9 8.5q0 3.9-5.2 8l9.2 5.3zm-26.6-5.5l12-7c4.1-2.4 4.7-4.6-0.2-7.4l-5.6-3.3c-6.1-3.5-10.3-3.2-15.8 0l-10.5 6.1zm-29.3-16.9l9.8-5.7c4.5-2.7 5.6-5.2 0.4-8.2l-3.7-2.1c-4.6-2.7-8.5-2.8-12.8-0.3l-11 6.3z" />
						</g>
					</g>
				</g>
			</g>
			<g id="&lt;Group&gt;">
				<path id="&lt;Path&gt;" class="s4" d="m66 83.8q0-15.7 1.1-21.1c1.1-5.4 5.1-8.6 8.6-8.4c3.6 0.2 4.6 9.3 4.4 12.8l-1.4 19.6c-0.2 2.3-1.8 5.6-5 8.9q-3.6 3.9-6.6 7.2l-5.1-11.8z" />
				<g id="&lt;Group&gt;">
					<path id="&lt;Path&gt;" class="s5" d="m30.6 189.5q6.8-4.7 8.8-8.2c-0.2-2.4 4.5-6.2 11.1-0.6c1 1.8 1.4 4.5 1.4 7.4c-0.3 0.7-1.4 1.7-3 2.7c-4.2 2.6-11.6 5.7-14.1 5.7c-6.4 0-6.2-5.6-4.2-7z" />
					<path id="&lt;Path&gt;" class="s5" d="m70.9 199.2c-0.3 0.5-0.9 1.1-1.8 1.8q-0.6 0.4-1.3 0.8c-4.2 2.7-11.6 5.8-14.1 5.7c-6.4 0-6.2-5.6-4.2-6.9c4.3-3 6.6-5.5 7.8-6.9q0.7-0.8 1-1.3l-0.3-3.8l-0.2-3.2h11l0.1 1.6l0.6 4.8q0.3 0.7 0.6 1.5c0.5 1.7 0.7 3.7 0.8 5.9z" />
					<path id="&lt;Path&gt;" class="s6" d="m99.5 119.9c-0.2 2.4-17.7 11.8-19.7 13.2c-0.1 0.1-4.2-0.1-4.3 0l-26.8 8.7c0.7 5.7 2.8 29.7 2.7 40.7c0.2 4.7-11.7 5.1-13.1 0.5q0-0.1 0-0.1c-0.6-1.7-8.6-40.7-8.1-43.7c-1.1-13.9 24-16.1 44-26.8z" />
					<path id="&lt;Path&gt;" class="s7" d="m104.3 121.9c1.4 1.5 1.7 14.1-7.5 17.7l-29.2 11.9c0.7 8.1 3.9 20.4 2.6 41.3q0 0 0 0c0 4.8-12.3 4.7-13.2 0.2q0-0.1 0-0.1q0 0 0 0c-0.5-1.7-8.5-40.4-8-43.4c-0.2-4.9 2.7-9 7.4-12.8c2.1-1.6 16.4-7.7 16.8-7.9c-3-4.9-2-11.3-0.8-15.5c3.3-1.5 2-1.3 4.9-2.8q27 11.4 27 11.4z" />
				</g>
				<g id="&lt;Group&gt;">
					<path id="&lt;Path&gt;" class="s5" d="m104 117.8c0 0.1 0.3 3.1 0.3 4.3c-9.6 7.7-31 0.5-33.3-6.1c0-1.4-0.4-2.8-0.3-4.6c6.7 8 26 11.2 33.3 6.4z" />
					<path id="&lt;Path&gt;" class="s8" d="m77.4 118.2c1.3 0.8 2.7 1.3 4.3 1.8l0.2 2.6c-1.8-0.5-3.2-1-4.3-1.8z" />
					<g id="&lt;Group&gt;">
						<path id="&lt;Path&gt;" class="s9" d="m77.5 53.7c3.7 1.1 4.2 0.9 11.6 3.6c5.4 3 12.1 7.1 16 11.2q0.1 0.8 0.3 2.2c0.5 4.7 0.8 13.8 0.4 28.1q-0.1 5.5-0.4 12.1c-0.3 4.1 0.4 5.7-1.4 7.2c-8.5 7.2-27.5 1.5-33.3-5.5c-1.9-2.3-7.8-63.1 6.8-58.9z" />
					</g>
					<path id="&lt;Path&gt;" class="s4" d="m93.7 59.7c1.6 3.2-6 8.9-9.8 9.2c-1.1-1.4-1.2-3.7-2.2-5.3c-1.2 0.9-2.5 1.5-4 2.6c-2.1-10.8 10.2-14.2 13.3-9.9c0.6 0.8 2.2 2.4 2.7 3.4z" />
				</g>
				<g id="&lt;Group&gt;">
					<path id="&lt;Path&gt;" class="s10" d="m70.9 138.6l-1.2 2.1l-6.6-3.7l1.2-2.2z" />
					<path id="&lt;Path&gt;" class="s10" d="m94.5 125c0 1.1-0.7 2.5-1.7 3.1l-21.9 12.5c-1 0.6-1.8 0.1-1.8-1l25.4-14.6z" />
					<path id="&lt;Path&gt;" class="s8" d="m36.7 120.7l25.3-14.5l32.5 18.8l-25.4 14.6z" />
					<g id="&lt;Group&gt;">
						<path id="&lt;Path&gt;" class="s11" d="m74.1 134.7l-1.4 0.8l-1.8-1l1.4-0.9z" />
						<path id="&lt;Path&gt;" class="s11" d="m68.1 131.2l1.8 1l-1.5 0.8l-1.8-1z" />
						<path id="&lt;Path&gt;" class="s11" d="m67.7 131l-1.4 0.8l-1.8-1l1.4-0.9z" />
						<path id="&lt;Path&gt;" class="s11" d="m65.6 129.7l-1.5 0.9l-1.7-1.1l1.4-0.8z" />
						<path id="&lt;Path&gt;" class="s11" d="m63.4 128.5l-1.4 0.8l-1.8-1l1.5-0.8z" />
						<path id="&lt;Path&gt;" class="s11" d="m57.4 125l1.8 1l-1.5 0.9l-1.8-1.1z" />
						<path id="&lt;Path&gt;" class="s11" d="m57 124.8l-1.4 0.8l-1.8-1l1.4-0.8z" />
						<path id="&lt;Path&gt;" class="s11" d="m54.9 123.6l-1.5 0.8l-1.7-1l1.4-0.9z" />
						<path id="&lt;Path&gt;" class="s11" d="m57.2 115.2l1.4-0.8l1.8 1l-1.4 0.9z" />
						<path id="&lt;Path&gt;" class="s11" d="m55 114l1.5-0.8l1.8 1l-1.5 0.8z" />
						<path id="&lt;Path&gt;" class="s11" d="m54.7 113.8l-1.8-1l1.5-0.9l1.7 1.1z" />
						<path id="&lt;Path&gt;" class="s11" d="m79.9 128.9l1.5-0.8l1.8 1l-1.5 0.8z" />
						<path id="&lt;Path&gt;" class="s11" d="m77.8 127.7l1.5-0.9l1.7 1.1l-1.4 0.8z" />
						<path id="&lt;Path&gt;" class="s11" d="m68.6 120.7l4.2 2.4l0.2 0.2l5.9 3.3l-1.4 0.9l-2.2-1.3l-1.8-1l-1.2-0.7l-0.9-0.5l-0.4-0.2l-0.6-0.4l-3.3-1.9z" />
						<path id="&lt;Path&gt;" class="s11" d="m65 120.3l1.4-0.9l1.8 1.1l-1.4 0.8z" />
						<path id="&lt;Path&gt;" class="s11" d="m62.8 119l1.5-0.8l1.8 1l-1.5 0.9z" />
						<path id="&lt;Path&gt;" class="s11" d="m62.5 118.8l-1.8-1l1.4-0.8l1.8 1z" />
						<path id="&lt;Path&gt;" class="s11" d="m57.2 117.3l-1.8-1l1.4-0.9l1.8 1.1z" />
						<path id="&lt;Path&gt;" class="s11" d="m55 116.1l-1.7-1.1l1.4-0.8l1.8 1z" />
						<path id="&lt;Path&gt;" class="s11" d="m52.9 114.8l-1.8-1l1.5-0.8l1.7 1z" />
						<path id="&lt;Path&gt;" class="s11" d="m79.9 131l-1.7-1.1l1.4-0.8l1.8 1z" />
						<path id="&lt;Path&gt;" class="s11" d="m77.5 127.9l1.7 1l-1.4 0.8l-1.8-1z" />
						<path id="&lt;Path&gt;" class="s11" d="m75.3 126.6l1.8 1.1l-1.4 0.8l-1.8-1z" />
						<path id="&lt;Path&gt;" class="s11" d="m73.2 125.4l1.8 1l-1.5 0.9l-1.8-1.1z" />
						<path id="&lt;Path&gt;" class="s11" d="m71 124.2l1.8 1l-1.4 0.8l-1.8-1z" />
						<path id="&lt;Path&gt;" class="s11" d="m68.9 122.9l1.8 1.1l-1.5 0.8l-1.7-1z" />
						<path id="&lt;Path&gt;" class="s11" d="m66.8 121.7l1.8 1l-1.5 0.9l-1.8-1.1z" />
						<path id="&lt;Path&gt;" class="s11" d="m64.6 120.5l1.8 1l-1.4 0.8l-1.8-1z" />
						<path id="&lt;Path&gt;" class="s11" d="m62.5 119.2l1.8 1.1l-1.5 0.8l-1.8-1z" />
						<path id="&lt;Path&gt;" class="s11" d="m55.4 118.3l-1.8-1l1.4-0.8l1.8 1z" />
						<path id="&lt;Path&gt;" class="s11" d="m52.9 115.2l1.8 1.1l-1.5 0.8l-1.7-1z" />
						<path id="&lt;Path&gt;" class="s11" d="m51.1 115.9l-1.8-1.1l1.5-0.8l1.7 1z" />
						<path id="&lt;Path&gt;" class="s11" d="m78.1 132l-1.7-1l1.4-0.9l1.8 1.1z" />
						<path id="&lt;Path&gt;" class="s11" d="m75.7 128.9l1.7 1l-1.4 0.9l-1.8-1.1z" />
						<path id="&lt;Path&gt;" class="s11" d="m73.9 129.5l-1.8-1l1.4-0.8l1.8 1z" />
						<path id="&lt;Path&gt;" class="s11" d="m71.7 128.3l-1.8-1l1.5-0.9l1.8 1.1z" />
						<path id="&lt;Path&gt;" class="s11" d="m69.6 127.1l-1.8-1.1l1.4-0.8l1.8 1z" />
						<path id="&lt;Path&gt;" class="s11" d="m67.5 125.8l-1.8-1l1.4-0.8l1.8 1z" />
						<path id="&lt;Path&gt;" class="s11" d="m65 122.7l1.8 1.1l-1.5 0.8l-1.8-1z" />
						<path id="&lt;Path&gt;" class="s11" d="m63.2 123.4l-1.8-1.1l1.4-0.8l1.8 1z" />
						<path id="&lt;Path&gt;" class="s11" d="m58.3 120.6l-1.2-0.7l0.9-0.5l0.6-0.4l1.8-1l1.7 1l-1.8 1.1l2.2 1.2l-1.5 0.8l-2.1-1.2z" />
						<path id="&lt;Path&gt;" class="s11" d="m51.8 118.3l1.4-0.8l1.8 1l-1.4 0.9z" />
						<path id="&lt;Path&gt;" class="s11" d="m52.9 117.3l-1.5 0.8l-1.7-1l1.4-0.8z" />
						<path id="&lt;Path&gt;" class="s11" d="m49.3 116.9l-1.8-1l1.5-0.9l1.8 1.1z" />
						<path id="&lt;Path&gt;" class="s11" d="m76.3 133.1l-1.7-1.1l1.4-0.8l1.8 1z" />
						<path id="&lt;Path&gt;" class="s11" d="m72.4 130.8l1.5-0.8l1.8 1l-1.5 0.8z" />
						<path id="&lt;Path&gt;" class="s11" d="m72.1 130.6l-1.8-1.1l1.4-0.8l1.8 1z" />
						<path id="&lt;Path&gt;" class="s11" d="m71.4 128.5l-1.5 0.8l-1.8-1l1.5-0.8z" />
						<path id="&lt;Path&gt;" class="s11" d="m67.8 128.1l-1.8-1l1.5-0.9l1.7 1.1z" />
						<path id="&lt;Path&gt;" class="s11" d="m65.7 126.9l-1.8-1.1l1.4-0.8l1.8 1z" />
						<path id="&lt;Path&gt;" class="s11" d="m61.7 124.6l1.5-0.8l1.8 1l-1.5 0.8z" />
						<path id="&lt;Path&gt;" class="s11" d="m61.4 124.4l-1.8-1l1.4-0.9l1.8 1.1z" />
						<path id="&lt;Path&gt;" class="s11" d="m60.7 122.3l-1.5 0.9l-2.1-1.3l-0.7-0.3l-1.1-0.7l1.5-0.8l1.1 0.6l0.6 0.4z" />
						<path id="&lt;Path&gt;" class="s11" d="m49.6 119.6l1.8 1l-1.4 0.8l-1.8-1z" />
						<path id="&lt;Path&gt;" class="s11" d="m49.3 119.4l-1.4 0.8l-1.8-1l1.4-0.9z" />
						<path id="&lt;Path&gt;" class="s11" d="m47.2 118.1l-1.5 0.9l-1.8-1.1l1.5-0.8z" />
					</g>
					<path id="&lt;Path&gt;" class="s12" d="m79.1 118.3l-4.3 2.4c-0.2 0.2-0.5 0.2-0.7 0l-6.5-3.7c-0.2-0.1-0.2-0.3 0-0.4l4.3-2.5c0.2-0.1 0.5-0.1 0.7 0l6.5 3.8c0.2 0.1 0.2 0.3 0 0.4z" />
				</g>
				<path id="&lt;Path&gt;" class="s4" d="m82.9 113.3c1.1-2.8 16.4-16.6 18.4-17.8c-5.8-9.7-8.4-19.5-8.4-21.4c0-7.6 10.5-10.7 13.4-3.7c8 17.5 10.8 26.1 10.8 28.1c0 1.9-0.7 3.7-2.1 5c-1.5 1.3-3.5 3.6-24.1 16.4c-6.1 3.2-9.2-4-8-6.6z" />
				<g id="&lt;Group&gt;">
					<path id="&lt;Path&gt;" class="s13" d="m67 125l2.6-4.3l3.1-2.6l2.1 1.5l-0.2 0.1l-3.7 3.1l-1.9 2.6c-0.5 0.6-1.3 0.5-1.7 0.2c-0.2-0.2-0.3-0.4-0.3-0.6z" />
					<path id="&lt;Path&gt;" class="s0" d="m70.7 121.6l3.6-2l0.3 0.1l-3.7 3.1l-1.9 2.6c-0.5 0.6-1.3 0.5-1.7 0.2c1.4-0.1 2.4-2.1 3.4-4z" />
					<path id="&lt;Path&gt;" class="s13" d="m68.5 126.5l2.5-4.2l3.5-2.9l1.7 1.7l-3.8 3.3l-1.9 2.6c-0.5 0.5-1.3 0.5-1.7 0.2c-0.2-0.2-0.3-0.4-0.3-0.7z" />
					<path id="&lt;Path&gt;" class="s13" d="m70.9 115.1c2.3 0.6 4.4 0.5 7.1 0.2l2.6-0.2l-0.2 0.6l-0.2 0.5l-1 2.8l-2.5-0.6l-1-0.3c-1.6 0-3.1-0.2-4.5-0.8c-0.6-0.2-1-0.6-1.1-1c-0.2-0.6 0-1.2 0.8-1.2z" />
					<path id="&lt;Path&gt;" class="s0" d="m80.4 115.7q0.4 0 0.7 0l-0.9 0.5l-3.5 2.2l-1-0.3c-1.6 0-3.1-0.2-4.5-0.8c-0.6-0.2-1-0.6-1.1-1c2.9 1.1 6.4-0.5 10.3-0.6z" />
					<path id="&lt;Path&gt;" class="s13" d="m78.1 115.7c2-0.3 3.9-1 5.3-2.2c1.1-0.6 3.1 0.8 4.1 2.4c0.5 0.7 0.7 1.5 0.6 2.2l-2.7 2c-1.3 2.4-3.3 4.2-6.2 4.2l-0.3-0.3l-1.5-1.4l-4.7-4.5c1.1-0.9 3.2-1.7 5.4-2.4z" />
					<path id="&lt;Path&gt;" class="s0" d="m68.8 127.2c1.4-0.1 2.6-1.9 3.6-3.8l3.5-2.6l0.3 0.3l-3.8 3.3l-1.9 2.6c-0.5 0.5-1.3 0.5-1.7 0.2q0 0 0 0z" />
					<path id="&lt;Path&gt;" class="s13" d="m72.9 123.9l3.2-3.2l1.9 1.5l-0.3 0.3l-3.2 3.3l-1.6 2.8c-0.4 0.6-1.3 0.7-1.7 0.4c-0.2-0.1-0.3-0.3-0.3-0.6z" />
					<path id="&lt;Path&gt;" class="s0" d="m74.3 125.1l3.3-2.7l0.1 0.1l-3.2 3.3l-1.6 2.8c-0.4 0.6-1.3 0.7-1.7 0.4c1.4 0 2.1-2 3.1-3.9z" />
					<path id="&lt;Path&gt;" class="s13" d="m76 124.4l1.4-1.8l1-1.2l2 1.5l-0.3 0.4l-0.9 1l-1.8 2l-1.7 2.6c-0.4 0.5-1.2 0.6-1.6 0.3q-0.3-0.2-0.2-0.6z" />
					<path id="&lt;Path&gt;" class="s0" d="m77 126l1.9-2l0.6-0.7q0.3 0 0.6 0c1.8-0.3 3.5-1.9 5.1-4.1c1.3-0.4 2.4-1.4 2.3-3.3c0.5 0.7 0.7 1.5 0.6 2.2l-2.7 2c-1.3 2.4-3.3 4.2-6.2 4.2l-1.8 2l-1.7 2.6c-0.4 0.5-1.2 0.6-1.6 0.3c1.4-0.1 1.9-1.3 2.9-3.2z" />
				</g>
				<g id="&lt;Group&gt;">
					<path id="&lt;Path&gt;" class="s4" d="m56.1 102.5l5.9-11.5c3.2 1.6 4.5 6.1 5.1 11.8c-2.3 2.4-2.2 2.3-3.2 3.4c-4.3 4.5-9-1.6-7.8-3.7z" />
					<g id="&lt;Group&gt;">
						<path id="&lt;Path&gt;" class="s13" d="m61.5 105.6q0 0.4-0.3 0.9l-1.4 1.5l-0.4 0.4l-3.1 3.4l-6.6-4.3l5.1-3.2l2.2-1.7c1.1-0.6 4.6 1.1 4.5 3z" />
						<path id="&lt;Path&gt;" class="s13" d="m52.2 108.2l-0.1 0.1l-4.1 2.9l-0.5 3.1q-0.1 0.5-0.5 0.9q-0.2 0.2-0.5 0.3c-0.3 0-0.5-0.1-0.7-0.4q0-0.1-0.1-0.3q0-0.1 0-0.2l0.6-4.2q3.2-2.9 3.6-3c0.2-0.1 1.3 0.4 2 0.7q0.2 0.1 0.3 0.1q0 0 0 0z" />
						<path id="&lt;Path&gt;" class="s0" d="m51 108.4l-3.2 2.7l-0.5 3c-0.1 0.3-0.2 0.7-0.3 1.1q-0.2 0.2-0.5 0.3c-0.3 0-0.5-0.1-0.7-0.4q0-0.1-0.1-0.3c0.6-0.6 1-2.3 1.2-3.8z" />
						<path id="&lt;Path&gt;" class="s13" d="m53.7 109.1l-1.4 1.1l-3.3 2.7l-1.1 3c-0.3 0.6-0.7 1-1.3 1.1q-0.3 0-0.5-0.3q-0.2-0.2-0.1-0.8l1.3-4.4q4.1-3.5 4.4-3.6q0.4 0 2 1.2z" />
						<path id="&lt;Path&gt;" class="s0" d="m53.1 109.1l-0.8 1.1l-3.3 2.7l-1.1 3c-0.3 0.6-0.7 1-1.3 1.1q-0.3 0-0.5-0.3c0.9-0.1 2.1-2.4 2.3-4.1z" />
						<path id="&lt;Path&gt;" class="s13" d="m55.6 109.9l-2.3 2l-3.1 2.7l-1.6 2.9c-0.4 0.5-0.9 0.8-1.5 0.8q-0.1 0-0.1-0.1q-0.2 0-0.3-0.2c-0.1-0.2-0.2-0.5 0-0.9l2.2-4.1q4.2-4.1 4.5-4.1q0.4 0 2.2 1z" />
						<path id="&lt;Path&gt;" class="s0" d="m54.5 110.3l-1.2 1.6l-3.1 2.7l-1.6 2.9c-0.4 0.5-0.9 0.8-1.5 0.8q-0.1 0-0.1-0.1l-0.3-0.2c0.9 0.3 2.9-2 3.2-4z" />
						<path id="&lt;Path&gt;" class="s13" d="m57 111.2l-4.1 4.1l-1.3 3c-0.3 0.5-0.7 0.9-1.3 0.9q-0.3 0-0.5-0.3q-0.2-0.2-0.1-0.9l1.7-4.2q3.4-4.1 3.8-4.1c0.2 0 1 0.7 1.4 1.2q0.3 0.2 0.4 0.3z" />
						<path id="&lt;Path&gt;" class="s0" d="m57 111.2l-4.1 4.1l-1.3 3c-0.3 0.5-0.7 0.9-1.3 0.9q-0.3 0-0.5-0.3c0.9 0 2.5-2.2 2.7-4.1l4.1-3.9q0.3 0.2 0.4 0.3z" />
						<path id="&lt;Path&gt;" class="s13" d="m59.8 107.2q0 0.4 0 0.8c0.1 1.2 0.2 2.5-0.2 3.6c-0.4 0.9-1 1.7-1.5 2.5q-0.9 1.3-1.3 2.7c-0.2 0.4-0.3 0.8-0.6 1q-0.3 0.1-0.6 0.1c-0.2-0.1-0.5-0.2-0.6-0.5c-0.3-0.4-0.3-0.9-0.2-1.3c0.2-1.5 1.3-2.8 1.5-4.3q0.1-0.2 0.1-0.4c0-0.5-0.1-1 0-1.4c0.1-0.8 0.6-1.5 1.3-1.9c0.5-0.3 1-0.5 1.6-0.7q0.2-0.1 0.5-0.2z" />
						<path id="&lt;Path&gt;" class="s0" d="m61.5 105.6q0 0.4-0.3 0.9l-1.4 1.5c0.1 1.2 0.2 2.5-0.2 3.6c-0.4 0.9-1 1.7-1.5 2.5q-0.9 1.3-1.3 2.7c-0.2 0.4-0.3 0.8-0.6 1q-0.3 0.1-0.6 0.1q0.3-0.4 0.5-0.8c0.3-0.5 0.4-1.2 0.7-1.8c0.4-1 1.2-1.8 1.7-2.7c0.8-1.3 1.1-2.8 0.9-4.2q0-0.5-0.1-1q-0.1-0.4-0.2-0.8c0.2 0.2 1.1 0.1 1.2 0.1q0.6-0.6 1.2-1.1z" />
					</g>
				</g>
				<g id="&lt;Group&gt;">
					<g id="&lt;Group&gt;">
						<path id="&lt;Path&gt;" class="s14" d="m36.6 121.1c-0.9 0.9-1.9 0.8-2.2-0.1l-6-22.2c-0.3-0.9 0.3-2.4 1.2-3.2l7 25.5z" />
						<path id="&lt;Path&gt;" class="s14" d="m62.1 114.3l5.3 26.1l-32.5-18.8l-5.3-26z" />
						<path id="&lt;Path&gt;" class="s10" d="m69.1 139.9c-0.9 0.8-1.9 0.8-2.2-0.2l-6-22.1c-0.3-1 0.3-2.4 1.2-3.3l7 25.6z" />
					</g>
					<path id="&lt;Path&gt;" class="s11" d="m48.4 119c0.2 1.1-0.5 1.6-1.5 1c-1-0.5-2-1.9-2.2-3c-0.2-1.1 0.5-1.5 1.5-1c1.1 0.6 2 1.9 2.2 3z" />
				</g>
				<g id="&lt;Group&gt;">
					<g id="&lt;Group&gt;">
						<path id="&lt;Path&gt;" class="s15" d="m75 46.2c-2.4-1.4-5.8-3.8-6-7.2c-0.2-4 3.6-6.4 8.9-7.5c7.4-1.5 11.9 3.8 11.5 11.6c-0.1 2.8 0.3 6.5-0.9 6.9c-1.7 0.6-0.9-0.3-2.2 0.2z" />
						<path id="&lt;Path&gt;" class="s13" d="m79 62.5q0-0.1-0.1-0.2l-0.9-3.7l-0.3-1.1l10.2-9.8l2.1 7.2c2.7 7-9 11-11 7.6z" />
						<path id="&lt;Path&gt;" class="s0" d="m79 62.5q0-0.1-0.1-0.2l-0.9-3.7l7.6-6.2c1.4 4.5-1.6 10.2-6.6 10.1z" />
						<path id="&lt;Path&gt;" class="s13" d="m68.6 41.3c0-4.7 4.4-7.4 9.4-8.3c6.9-1.3 9.5 3.2 10.6 8.4c0.3 2.4 0.1 5.4-0.2 7.9l-2.8 3.1q-0.5 2.9-1.9 4.7c-1.5 1.8-3.4 3.3-5.6 3.4c-2.3 0.1-4.1-0.9-5.4-4.4c-1.1-3.3-1.6-3.4-2.1-5c-0.2-0.8-0.2-1.9-0.4-2.3c-0.2-0.6-0.7-1.3-0.9-1.9c-0.4-1.3-0.7-4.3-0.7-5.6z" />
						<path id="&lt;Path&gt;" class="s15" d="m69 39c0.2-2 1.2-3.9 6.1-5.8c2-0.8 4.2-1.3 6.3-1c2.3 0.4 4.3 1.9 5.6 3.8c1.3 2 1.8 4.3 2 6.6c0.2 2.4-0.3 5.1-0.5 7.4c-0.6 0.3-1.2 0.4-1.5 0c-1-1.3-0.1-4.8-1.2-5.4q-0.6-0.3-2.6 0.3q-0.2-8.6-1.4-7.7c-6.4 4.5-11.9 3.9-12.8 1.8z" />
						<path id="&lt;Path&gt;" class="s13" d="m85.4 42.3c1.5-0.9 1.9 1.3 2 2.3c0 0.6-0.1 1.3 0 1.9c0 0.6 0.3 1.4-0.1 1.9c-0.8 1.4-2.2-0.3-2.6-1.1c-0.5-1-0.6-4.2 0.7-5z" />
					</g>
					<g id="&lt;Group&gt;">
						<path id="&lt;Compound Path&gt;" fill-rule="evenodd" class="s15" d="m68.4 46.9c0-1.4 1.7-0.4 3.5-0.1c0.4 0.1 0.6 0.3 0.8 0.6c0.4-0.2 0.9-0.2 1.4 0c0-0.3 0.7-0.4 0.9-0.5c2.2-0.1 4.7-1.1 5.2 0.3c1.3 3.1-5.3 5.7-6.1 0.8q0-0.1 0-0.1c-0.4-0.2-0.8-0.2-1.2-0.1q0.1 0 0.1 0.1c0.6 2.5-1.3 3.1-2.9 2.2c-1-0.6-1.5-1.7-1.7-3.2zm7.3 3.2c0.6 0.3 1.4 0.4 2.2 0.2c0.9-0.3 1.6-0.8 1.9-1.5q0.4-0.7 0.1-1.5c-0.2-0.7-1.2-0.6-2.8-0.3c-0.7 0.1-1.4 0.2-2.1 0.2c-0.7 0.1-0.7 0.4-0.6 0.7c0.1 1 0.6 1.8 1.3 2.2zm-5.6-0.4c0.6 0.4 1.3 0.6 1.8 0.4c1-0.3 1-1.5 0.7-2.4c-0.1-0.3-0.5-0.5-0.7-0.6q-0.8-0.1-1.4-0.3c-0.8-0.2-1.2-0.4-1.5-0.3c-0.2 0-0.3 0.1-0.3 0.4c0.2 1.2 0.4 2.2 1.4 2.8z" />
					</g>
					<path id="&lt;Path&gt;" class="s15" d="m79.7 46.8l4.4-2.9l-0.1 0.5l-3.9 3z" />
				</g>
			</g>
		</g>
	</g>
</svg>